# xmcd
#
# Track frame offsets: 
#        150
#        17342
#        40291
#        61486
#        80151
#        102191
#        123579
#        144069
#        164633
#        183901
#        204992
#        227936
#
# Disc length: 3342 seconds
#
# Revision: 0
# Processed by: cddbd v1.5.2PL0 Copyright (c) Steve Scherf et al.
# Submitted via: ExactAudioCopy v1.1
#
DISCID=9e0d0c0c
DTITLE=张玮伽 - 往事随风
DYEAR=2017
DGENRE=
TTITLE0=闷
TTITLE1=不要伤害我的心
TTITLE2=爱要怎么说出口
TTITLE3=当爱在靠近
TTITLE4=小小的太阳
TTITLE5=无情的情书
TTITLE6=原来的我
TTITLE7=特别的爱给特别的你
TTITLE8=燕尾蝶
TTITLE9=我难过
TTITLE10=以后的以后
TTITLE11=原来你什么都不想要
EXTD=
EXTT0=
EXTT1=
EXTT2=
EXTT3=
EXTT4=
EXTT5=
EXTT6=
EXTT7=
EXTT8=
EXTT9=
EXTT10=
EXTT11=
PLAYORDER=
